<?xml version="1.0" encoding="utf-8"?>
<!-- Generator: Adobe Illustrator 18.1.1, SVG Export Plug-In . SVG Version: 6.00 Build 0)  -->
<svg version="1.1" id="Warstwa_1" xmlns="http://www.w3.org/2000/svg" xmlns:xlink="http://www.w3.org/1999/xlink" x="0px" y="0px"
	 viewBox="0 0 206 47" enable-background="new 0 0 206 47" xml:space="preserve">
<g>
	<path fill="#E1063C" d="M70.8,46.8C70.4,47,69.6,47,69.6,47l-1.5,0l5.7-7.9l2.6,0L71.7,46C71.7,46,71.3,46.7,70.8,46.8z"/>
</g>
<g>
	<path fill="#E1063C" d="M87.3,37.9h-1.9v3.9H83v-3.9h-8.3L83,26.3h2.3v9.6h1.9V37.9z M78.8,35.9H83v-5.8L78.8,35.9z"/>
</g>
<g>
	<path fill="#FFFFFF" d="M87.1,26.3h2.8l3.9,12.2h0l4-12.2h2.8l-5.3,15.5h-3L87.1,26.3z"/>
	<path fill="#FFFFFF" d="M102.1,26.3h2.7v15.5h-2.7V26.3z"/>
	<path fill="#FFFFFF" d="M112.3,26.3h2.9l6,15.5h-2.9l-1.5-4.1h-6.2l-1.5,4.1h-2.8L112.3,26.3z M111.3,35.6h4.7l-2.3-6.6h-0.1
		L111.3,35.6z"/>
	<path fill="#FFFFFF" d="M119.1,26.3h12.5v2.3h-4.9v13.1H124V28.7h-4.9V26.3z"/>
	<path fill="#FFFFFF" d="M133.4,26.3h2.7v15.5h-2.7V26.3z"/>
	<path fill="#FFFFFF" d="M153.4,34c0,4.4-2.8,8.1-7.4,8.1c-4.6,0-7.4-3.7-7.4-8.1c0-4.4,2.8-8.1,7.4-8.1
		C150.7,26,153.4,29.6,153.4,34z M141.3,34c0,3,1.4,5.9,4.7,5.9c3.3,0,4.7-2.9,4.7-5.9c0-3-1.4-5.9-4.7-5.9
		C142.7,28.2,141.3,31.1,141.3,34z"/>
	<path fill="#FFFFFF" d="M155.8,26.3h2.9l7.1,11.4h0V26.3h2.6v15.5h-2.9l-7-11.4h-0.1v11.4h-2.6V26.3z"/>
</g>
<g>
	<path fill="#FFFFFF" d="M2.7,36.6c0,2.4,1.8,3.3,3.9,3.3c2.4,0,3.3-1.2,3.3-2.3c0-1.2-0.6-1.7-1.3-1.9C7.5,35.3,6.1,35,4,34.4
		c-2.6-0.7-3.4-2.3-3.4-3.9c0-3.1,2.9-4.5,5.7-4.5c3.2,0,5.9,1.7,5.9,4.9H9.4c-0.1-2-1.5-2.7-3.3-2.7c-1.3,0-2.8,0.5-2.8,2
		c0,1.1,0.7,1.7,1.8,2c0.2,0.1,3.7,1,4.5,1.2c2,0.6,3,2.3,3,3.9c0,3.5-3.1,4.9-6.2,4.9c-3.5,0-6.4-1.7-6.5-5.5H2.7z"/>
	<path fill="#FFFFFF" d="M14.9,26.3h3.8L23,38.4h0l4.2-12.1H31v15.5h-2.6V29.8h0L24,41.8h-2.2l-4.3-11.9h0v11.9h-2.6V26.3z"/>
	<path fill="#FFFFFF" d="M38.3,26.3h2.9l6,15.5h-2.9l-1.5-4.1h-6.2l-1.5,4.1h-2.8L38.3,26.3z M37.4,35.6h4.7L39.8,29h-0.1L37.4,35.6
		z"/>
	<path fill="#FFFFFF" d="M48.6,26.3H56c3.4,0,5.1,1.6,5.1,4.2c0,3-2.1,3.7-2.6,3.9v0c0.9,0.1,2.3,0.8,2.3,3.3c0,1.8,0.3,3.4,0.8,4.1
		h-2.9c-0.4-0.7-0.4-1.5-0.4-2.3c0-2.8-0.6-4.1-3.1-4.1h-4v6.4h-2.7V26.3z M51.3,33.4h4.4c1.7,0,2.6-0.8,2.6-2.5
		c0-2-1.3-2.4-2.7-2.4h-4.4V33.4z"/>
	<path fill="#FFFFFF" d="M62,26.3h12.5v2.3h-4.9v13.1h-2.7V28.7H62V26.3z"/>
</g>
<path fill="#E1063C" d="M187.2,0.2c-8.6,0-15.6,7-15.6,15.6c0,4.1,1.6,7.9,4.3,10.7l-2,7.5l7-4c1.9,0.9,4.1,1.3,6.3,1.3
	c8.6,0,15.6-7,15.6-15.6C202.7,7.1,195.8,0.2,187.2,0.2z M194.8,7.6c0,0.3-0.1,0.6-0.3,0.8l-2.9,4c0,0-0.1,0.1-0.1,0.2
	c0,0.1,0,0.1,0,0.1l2.2,12.7c0,0,0,0.1,0,0.2c0,0.1,0,0.2,0,0.2c0,0,0,0.1,0,0.1c0,0,0,0.1-0.1,0.1l-0.6,0.8C193.1,27,193,27,193,27
	c-0.1,0-0.3,0-0.3-0.2l-4.7-8.8c0-0.1-0.1-0.1-0.1-0.2c-0.1,0-0.1-0.1-0.2-0.1l0,0c0,0-0.1,0.1-0.1,0.1l-2.5,3.3l0.6,4l-0.8,1.1
	c0,0-0.1,0.1-0.2,0.1c-0.1,0-0.2,0-0.3-0.1c-0.1-0.1-0.1-0.1-0.2-0.2l-0.9-2.1c0-0.1-0.1-0.1-0.1-0.1c-0.1,0-0.1,0-0.2,0
	c-0.1,0-0.2,0.1-0.3,0.2c-0.1,0.1-0.1,0.2-0.2,0.3c-0.2,0.2-0.5,0.4-0.8,0.5c-0.3,0.1-0.5-0.1-0.6-0.4c0-0.2,0-0.3,0-0.5
	c0-0.2,0.1-0.3,0.2-0.4l0.3-0.5c0,0,0,0,0,0c0,0,0,0,0,0c0-0.1,0-0.1,0-0.1c0-0.1,0-0.1-0.1-0.1c-0.1,0-0.1-0.1-0.2-0.1l-2.4-0.2
	c-0.2,0-0.3-0.1-0.3-0.3l0,0c0,0,0-0.1,0-0.1l0.7-1c0,0,0.1,0,0.1-0.1c0,0,0.1-0.1,0.1-0.1l3.7-0.7c0,0,0,0,0.1,0
	c0,0,0.1-0.1,0.1-0.1l2.2-3.4c0,0,0-0.1,0-0.2c0-0.1-0.1-0.2-0.2-0.3l-10-1.4c-0.1,0-0.1,0-0.1-0.1c0-0.1,0-0.1,0-0.2l0-0.1
	c0,0,0-0.1,0-0.1l0.6-0.9c0,0,0-0.1,0.1-0.1c0,0,0.1-0.1,0.1-0.1l13.3-2.3l2.6-4c0.2-0.3,0.4-0.5,0.8-0.7c0.3-0.2,0.7-0.3,1-0.4
	c0.2,0,0.4,0,0.6,0c0.2,0.1,0.3,0.2,0.5,0.5l0,0.2l0,0.2C194.8,7,194.8,7.3,194.8,7.6z"/>
</svg>
